<?xml version="1.0" encoding="UTF-8" standalone="no"?>
<!-- Created with Inkscape (http://www.inkscape.org/) -->

<svg
   xmlns:dc="http://purl.org/dc/elements/1.1/"
   xmlns:cc="http://creativecommons.org/ns#"
   xmlns:rdf="http://www.w3.org/1999/02/22-rdf-syntax-ns#"
   xmlns:svg="http://www.w3.org/2000/svg"
   xmlns="http://www.w3.org/2000/svg"
   xmlns:xlink="http://www.w3.org/1999/xlink"
   xmlns:sodipodi="http://sodipodi.sourceforge.net/DTD/sodipodi-0.dtd"
   xmlns:inkscape="http://www.inkscape.org/namespaces/inkscape"
   width="38.356586mm"
   height="38.298607mm"
   viewBox="0 0 38.356587 38.298607"
   version="1.1"
   id="svg6177"
   sodipodi:docname="loading-circle.svg"
   inkscape:version="0.92.1 r15371">
  <defs
     id="defs6171">
    <linearGradient
       inkscape:collect="always"
       id="linearGradient6808">
      <stop
         style="stop-color:#1a1a1a;stop-opacity:1;"
         offset="0"
         id="stop6804" />
      <stop
         style="stop-color:#1a1a1a;stop-opacity:0;"
         offset="1"
         id="stop6806" />
    </linearGradient>
    <radialGradient
       inkscape:collect="always"
       xlink:href="#linearGradient6147"
       id="radialGradient6151"
       gradientUnits="userSpaceOnUse"
       gradientTransform="matrix(0.08954505,0,0,0.08954638,73.951321,-197.70857)"
       cx="-572.59174"
       cy="2460.1211"
       fx="-572.59174"
       fy="2460.1211"
       r="214.21786" />
    <linearGradient
       inkscape:collect="always"
       id="linearGradient6147">
      <stop
         style="stop-color:#4d4d4d;stop-opacity:1;"
         offset="0"
         id="stop6143" />
      <stop
         style="stop-color:#4d4d4d;stop-opacity:0;"
         offset="1"
         id="stop6145" />
    </linearGradient>
    <radialGradient
       inkscape:collect="always"
       xlink:href="#linearGradient6147"
       id="radialGradient6141"
       cx="-504.37476"
       cy="2454.697"
       fx="-504.37476"
       fy="2454.697"
       r="141.41792"
       gradientTransform="matrix(0.08954505,0,0,0.13220916,73.951321,-302.43276)"
       gradientUnits="userSpaceOnUse" />
    <linearGradient
       inkscape:collect="always"
       xlink:href="#linearGradient6808"
       id="linearGradient6812"
       x1="11.137014"
       y1="21.913441"
       x2="29.264513"
       y2="21.913441"
       gradientUnits="userSpaceOnUse" />
  </defs>
  <sodipodi:namedview
     id="base"
     pagecolor="#ffffff"
     bordercolor="#666666"
     borderopacity="1.0"
     inkscape:pageopacity="0.0"
     inkscape:pageshadow="2"
     inkscape:zoom="2.8"
     inkscape:cx="29.510584"
     inkscape:cy="74.039954"
     inkscape:document-units="mm"
     inkscape:current-layer="layer1"
     showgrid="false"
     fit-margin-top="0"
     fit-margin-left="0"
     fit-margin-right="0"
     fit-margin-bottom="0"
     inkscape:window-width="1366"
     inkscape:window-height="744"
     inkscape:window-x="0"
     inkscape:window-y="0"
     inkscape:window-maximized="1"
     showborder="true" />
  <metadata
     id="metadata6174">
    <rdf:RDF>
      <cc:Work
         rdf:about="">
        <dc:format>image/svg+xml</dc:format>
        <dc:type
           rdf:resource="http://purl.org/dc/dcmitype/StillImage" />
        <dc:title></dc:title>
      </cc:Work>
    </rdf:RDF>
  </metadata>
  <g
     inkscape:label="Layer 1"
     inkscape:groupmode="layer"
     id="layer1"
     transform="translate(-3.4942184,-3.4303043)">
    <path
       inkscape:connector-curvature="0"
       style="fill:url(#radialGradient6141);fill-opacity:1;stroke:none;stroke-width:0.44772527;stroke-miterlimit:4;stroke-dasharray:none"
       d="m 22.716446,3.6278357 c -2.079361,-0.00445 -4.448088,0.4091052 -6.517464,1.147084 4.622467,-1.6155726 9.935891,0.9935209 11.837316,5.4585413 4.923403,2.134277 8.110494,6.987125 8.112936,12.35322 -1.6e-5,7.439635 -6.031043,13.470649 -13.470684,13.470639 -1.843551,-0.002 -3.667083,-0.382277 -5.357703,-1.117458 1.916908,4.501383 7.044365,6.765593 11.697054,5.073029 9.624212,-3.50112 14.587971,-14.141357 11.086853,-23.76557 C 37.369508,8.7284066 30.277756,3.6436312 22.716446,3.6278357 Z"
       id="path33-3-3"
       sodipodi:nodetypes="cccccccsc" />
    <path
       inkscape:connector-curvature="0"
       style="fill:url(#radialGradient6151);fill-opacity:1;stroke:none;stroke-width:0.5291667;stroke-miterlimit:4;stroke-dasharray:none"
       d="M 22.716446,3.6278357 C 20.552438,3.6233905 18.350857,3.9921082 16.198982,4.7749197 6.3618298,8.3534952 1.2882516,19.229093 4.8668318,29.066243 8.445412,38.903394 19.321005,43.976971 29.158155,40.398393 38.995315,36.819813 44.068883,25.944219 40.490305,16.107068 37.694551,8.4217938 30.445042,3.6439818 22.716446,3.6278357 Z m 0,0 c 7.561317,0.015805 14.653009,5.1005709 17.388253,12.6194853 3.501113,9.624213 -1.46264,20.26445 -11.086851,23.76557 -4.65243,1.692467 -9.779117,-0.571727 -11.696276,-5.07262 -0.374954,-0.160554 -0.742423,-0.338057 -1.10127,-0.531959 C 15.82617,34.192984 15.443054,33.958088 15.072388,33.704488 14.70172,33.450906 14.343964,33.17894 14.000462,32.889612 13.656964,32.600281 13.32815,32.293949 13.015252,31.971773 12.702344,31.649598 12.405744,31.311988 12.126563,30.960184 11.847389,30.60837 11.585985,30.242809 11.34333,29.864885 11.100668,29.48698 10.877058,29.097172 10.673336,28.696933 10.469627,28.296664 10.286063,27.886467 10.123332,27.467864 9.9605816,27.049276 9.8188673,26.622799 9.6987175,26.190055 9.5785775,25.757311 9.480155,25.318828 9.4038203,24.87625 9.3274906,24.433667 9.2733427,23.987543 9.2415839,23.539547 c -0.022473,-0.317123 -0.033734,-0.634943 -0.033734,-0.952866 -4.9e-6,-0.449128 0.022473,-0.897973 0.067286,-1.344858 0.044847,-0.446875 0.1120101,-0.891226 0.2012409,-1.331384 0.089226,-0.440157 0.2004062,-0.875588 0.3331262,-1.304643 0.132725,-0.429044 0.286826,-0.851189 0.461722,-1.264843 0.174892,-0.413659 0.370363,-0.818324 0.585678,-1.212459 0.215311,-0.394129 0.450198,-0.77725 0.703779,-1.147913 0.253588,-0.370669 0.525553,-0.728432 0.814878,-1.071935 0.28933,-0.343508 0.595658,-0.672338 0.917837,-0.985253 0.322172,-0.312895 0.659791,-0.609481 1.011591,-0.888647 0.351813,-0.279181 0.717368,-0.540601 1.095296,-0.783266 0.377922,-0.242651 0.767742,-0.466242 1.167999,-0.669952 0.40025,-0.20372 0.810436,-0.387309 1.229024,-0.550054 0.418593,-0.1627303 0.845061,-0.3044296 1.277808,-0.4245598 0.432741,-0.1201449 0.871221,-0.2185723 1.313796,-0.294907 0.442586,-0.076349 0.888714,-0.1305072 1.33671,-0.1622858 0.317125,-0.022473 0.634946,-0.033734 0.952867,-0.033734 0.449125,9.9e-6 0.897969,0.022473 1.34485,0.067326 0.446874,0.044847 0.891226,0.1119805 1.331392,0.2012014 0.440159,0.089221 0.875582,0.2004013 1.304635,0.3331262 0.429051,0.132725 0.851196,0.286822 1.264851,0.461722 0.03718,0.01773 0.07428,0.03566 0.111286,0.05376 -1.917123,-4.5009478 -7.184064,-7.1506956 -11.83652,-5.4582104 2.105293,-0.7658702 4.400306,-1.1515045 6.517464,-1.147084 z"
       id="path35-6-67"
       sodipodi:nodetypes="cssssccsccccccccccccccccccccccccccccccccccccc" />
    <path
       style="opacity:1;fill:#000000;fill-opacity:0.68627451;stroke:none;stroke-width:0.1889881;stroke-linecap:round;stroke-miterlimit:4;stroke-dasharray:none;stroke-opacity:1"
       d="M 20.090173,41.583481 C 11.712177,40.566994 4.5841022,33.375845 3.6541473,24.982153 2.5649312,16.974212 7.1326129,8.5710398 14.512427,5.2288229 c 6.474885,-3.0826598 14.624711,-2.153442 20.178855,2.4099744 6.423411,5.0661927 8.9681,14.4553417 5.799634,22.0300497 -2.634038,6.713901 -9.281488,11.670669 -16.517691,12.023283 -1.294349,0.07731 -2.594369,0.02883 -3.883052,-0.108649 z m 5.197173,-0.469201 c 0.831218,0.05078 1.609014,-0.45782 0.330729,-0.344239 -3.634198,0.01944 -6.961993,-2.425163 -8.536929,-5.617758 C 11.440366,32.56694 7.8716387,25.96348 9.266309,19.84529 10.393522,14.313358 15.155629,9.6892746 20.812033,9.0341436 23.032124,8.7400945 25.300289,9.023175 27.436327,9.6651439 25.364979,5.3268826 19.562726,3.1873092 15.23842,5.4166731 7.5678629,8.5664846 2.7644434,17.304559 4.1714726,25.47232 5.2536722,32.774535 11.025691,39.105538 18.233559,40.767697 20.5335,41.334168 22.943,41.45525 25.287346,41.11428 Z m 2.037891,-0.893239 C 35.601332,38.345959 41.599711,29.89523 40.956641,21.483155 40.492069,12.645263 33.060107,4.6413807 24.163937,3.9263268 23.21186,3.7840444 20.596053,3.8439756 20.68846,4.1473935 c 3.145368,0.6261292 6.02832,2.7132303 7.39656,5.6429388 1.725141,1.3097737 3.747105,2.2705657 5.070639,4.0535807 3.925146,4.591975 4.226454,11.827219 0.617278,16.692044 -3.288999,4.674357 -9.752072,6.929149 -15.17457,5.035142 -1.501859,0.214957 1.345367,2.549458 2.022852,3.077353 1.917012,1.369078 4.375922,1.970064 6.704018,1.572589 z M 25.2942,35.604596 C 31.750289,34.462054 36.60267,27.920202 35.919664,21.413016 35.47516,15.615012 30.792526,10.484821 25.042408,9.5534346 19.05146,8.4007239 12.519246,11.943424 10.373774,17.690562 c -2.2704143,5.567558 -0.212558,12.55506 4.862657,15.851189 2.899641,1.992535 6.607942,2.751715 10.057769,2.062845 z"
       id="path4555"
       inkscape:connector-curvature="0" />
  </g>
</svg>
